<svg version="1.1" id="Layer_1" xmlns="http://www.w3.org/2000/svg" xmlns:xlink="http://www.w3.org/1999/xlink" x="0px" y="0px" viewBox="0 0 500 500" style="width: 164px;" xml:space="preserve" data-imageid="quality-check-57" imageName="Quality Check" class="illustrations_image">
<style type="text/css">
	.st0_quality-check-57{fill:#FFFFFF;}
	.st1_quality-check-57{fill:#231F20;}
	.st2_quality-check-57{fill:#68E1FD;}
	.st3_quality-check-57{fill:#D1D3D4;}
</style>
<g id="Charaxcter_quality-check-57">
	<path class="st0_quality-check-57" d="M385.7,245.2h32.1c3.1-6.4,3.7-13.7,3.9-20.8c0.2-6.5,0-13.1-2-19.3c-5.3-16.4-22.5-25.9-39.3-21.6&#10;&#9;&#9;c-2-2.3-4.7-4-7.6-4.7c-2.9-0.6-11.3,0.2-11.4,3.1c0,0.9,0.3,1.8,0.8,2.6c2.9,5.4,7.4,9.9,11,14.9&#10;&#9;&#9;C381.7,211,383.2,229.3,385.7,245.2z"/>
	<path class="st1_quality-check-57" d="M417.8,246h-32.1c-0.4,0-0.7-0.3-0.7-0.6c-0.4-2.5-0.8-5-1.1-7.6c-2-13.9-4.1-28.3-11.1-37.9&#10;&#9;&#9;c-1.3-1.8-2.7-3.5-4.1-5.1c-2.6-3-5-6.3-7-9.8c-0.5-0.9-0.9-1.9-0.9-2.9c0-0.8,0.5-1.5,1.1-2c2.5-1.9,8.7-2.4,11.2-1.8&#10;&#9;&#9;c3,0.7,5.7,2.3,7.7,4.6c7.6-1.8,15.7-0.9,22.7,2.5c8.1,4,14.2,11.1,17,19.6c2,6.3,2.2,13.1,2,19.5c-0.2,7.1-0.8,14.6-4,21.1&#10;&#9;&#9;C418.4,245.8,418.1,246,417.8,246z M386.4,244.5h31c2.9-6.2,3.4-13.3,3.6-20.1c0.2-7.3-0.1-13.3-1.9-19&#10;&#9;&#9;c-5.2-16.1-22-25.3-38.4-21.1c-0.3,0.1-0.5,0-0.7-0.2c-1.9-2.2-4.4-3.8-7.2-4.5c-2.1-0.4-7.9,0-9.9,1.6c-0.5,0.4-0.5,0.8-0.6,0.9&#10;&#9;&#9;c0.1,0.8,0.3,1.5,0.7,2.2c2,3.4,4.3,6.6,6.9,9.6c1.4,1.7,2.8,3.4,4.1,5.2c7.2,9.9,9.4,24.5,11.4,38.6&#10;&#9;&#9;C385.7,239.9,386,242.2,386.4,244.5L386.4,244.5z"/>
	<path class="st0_quality-check-57" d="M420.9,180.8c4-3.2,7.9-6.7,12.6-8.7c0.4-0.2,0.8-0.3,1.2-0.3c0.4,0.1,0.7,0.3,1,0.7c1.2,1.5,1.5,3.5,1,5.3&#10;&#9;&#9;c-0.5,1.8-1.4,3.5-2.6,4.9c-3,4.1-6.6,7.8-10.5,11c-2.7,2.1-5.7,4.1-9.1,4.8c-4.6,0.9-15.2-3.6-10.5-9.8c1.3-1.8,4.4-1.4,6.3-2&#10;&#9;&#9;C414.2,185.4,417.8,183.4,420.9,180.8z"/>
	<path class="st1_quality-check-57" d="M413.2,199.3c-3.5,0-8.4-1.9-10.2-4.9c-0.9-1.4-1.5-3.6,0.5-6.2c1.1-1.5,3.1-1.7,4.8-1.9&#10;&#9;&#9;c0.6-0.1,1.3-0.2,1.9-0.3c3.8-1.2,7.2-3.2,10.2-5.8l2.2-1.8c3.2-2.6,6.6-5.4,10.5-7.1c0.5-0.3,1.1-0.4,1.7-0.3&#10;&#9;&#9;c0.6,0.1,1.1,0.4,1.5,0.9c1.4,1.7,1.8,3.9,1.2,6c-0.6,1.9-1.5,3.6-2.7,5.2c-3.1,4.2-6.6,7.9-10.7,11.1c-2.4,1.9-5.6,4.2-9.4,4.9&#10;&#9;&#9;C414.2,199.3,413.7,199.3,413.2,199.3z M421.4,181.4c-3.2,2.7-6.8,4.7-10.7,6c-0.7,0.2-1.4,0.3-2.1,0.4c-1.5,0.2-3.1,0.4-3.8,1.4&#10;&#9;&#9;c-1.2,1.6-1.3,3.1-0.5,4.5c1.8,2.8,7.2,4.7,10.2,4.1c3.5-0.7,6.5-2.9,8.8-4.6c3.9-3.1,7.4-6.8,10.4-10.9c1.1-1.4,2-2.9,2.5-4.6&#10;&#9;&#9;c0.5-1.6,0.2-3.3-0.9-4.6c-0.2-0.2-0.4-0.3-0.6-0.4c-0.3,0-0.6,0.1-0.8,0.2c-3.7,1.6-7,4.3-10.2,6.8&#10;&#9;&#9;C422.9,180.2,422.1,180.8,421.4,181.4L421.4,181.4z"/>
	<path class="st0_quality-check-57" d="M189.3,148.5c-2.4-10.7-5.6-21.3-6.5-32.3s0.5-22.5,6.7-31.6c2.5-3.6,5.9-6.9,10.1-8.1c3.7-1.1,10,1,10,1&#10;&#9;&#9;c3-2.2,6.2-4.3,9.5-6.2c7-3.5,14.9-4.7,22.6-5.5c11-1.1,23.7-0.5,30.7,8.1c5.1,6.3,5.6,15,5.8,23.1l0.5,20.8"/>
	<path class="st1_quality-check-57" d="M189.3,149.3c-0.4,0-0.7-0.2-0.8-0.6c-0.6-2.8-1.3-5.6-2-8.4c-1.9-7.8-3.9-15.8-4.6-24&#10;&#9;&#9;c-0.8-8.9-0.2-21.7,6.9-32.1c3-4.3,6.6-7.3,10.5-8.4c3.4-1,8.6,0.4,10.1,0.8c3-2.2,6.1-4.2,9.3-6c7.4-3.7,15.7-4.9,22.9-5.6&#10;&#9;&#9;c15.3-1.5,25.6,1.2,31.4,8.3c5.5,6.8,5.8,16.5,6,23.6l0.5,20.8c0,0.4-0.3,0.8-0.8,0.8c-0.4,0-0.8-0.3-0.8-0.8L277.3,97&#10;&#9;&#9;c-0.2-8.6-0.8-16.8-5.6-22.7c-5.5-6.7-15.3-9.2-30.1-7.8c-7,0.7-15.2,1.9-22.3,5.4c-3.2,1.9-6.3,3.9-9.3,6.1&#10;&#9;&#9;c-0.2,0.1-0.5,0.2-0.7,0.1c-0.1,0-6.1-2-9.5-0.9c-4.5,1.3-7.7,5-9.7,7.8c-6.8,10-7.4,22.4-6.6,31.1c0.7,8,2.6,16,4.5,23.7&#10;&#9;&#9;c0.7,2.8,1.4,5.6,2,8.4c0.1,0.4-0.2,0.8-0.6,0.9L189.3,149.3z"/>
	<path class="st2_quality-check-57 targetColor" d="M308.5,434.6c-7.4-137.4,4.3-188.6-1.5-202.7c-13.9-33.3-95.1-44.2-95.1-44.2s-87.9-0.4-107.4,46.1&#10;&#9;&#9;c-4.9,11.7-38.8,92.9-42.1,143c-1.7,25,24.4,20,47,22.1v35.8L308.5,434.6z" style="fill: rgb(247, 159, 72);"/>
	<polygon class="st0_quality-check-57" points="253.8,249.6 247.1,258.8 273.1,368 257.7,399.1 235.1,368 238.3,259.6 228.6,248.4 242.6,237.4 &#9;"/>
	<path class="st1_quality-check-57" d="M257.7,399.8c-0.2,0-0.5-0.1-0.6-0.3l-22.6-31c-0.1-0.1-0.1-0.3-0.1-0.5l3.2-108.1l-9.5-11&#10;&#9;&#9;c-0.1-0.2-0.2-0.4-0.2-0.6c0-0.2,0.1-0.4,0.3-0.5l14-11.1c0.3-0.2,0.7-0.2,1,0.1l11.2,12.3c0.2,0.3,0.2,0.7,0,1L248,259l25.9,108.9&#10;&#9;&#9;c0,0.2,0,0.4-0.1,0.5l-15.4,31C258.3,399.6,258.1,399.8,257.7,399.8L257.7,399.8z M235.9,367.8l21.7,29.8l14.7-29.6l-26-109&#10;&#9;&#9;c0-0.2,0-0.5,0.1-0.6l6.3-8.6l-10.3-11.3l-12.8,10.1l9.2,10.6c0.1,0.1,0.2,0.3,0.2,0.5L235.9,367.8z"/>
	<path class="st0_quality-check-57" d="M262.1,194.4l3.5,23c0,0-5.2,24.9-30.5,19.1c-15-3.5-27.5-13.6-34.1-27.5l-2.8-53.4c0,0,18.6-10.1,12.7-50.7&#10;&#9;&#9;c0,0,28.2,13.6,65.6,8.5c0,0,9,41.8,6.1,61.3S262.1,194.4,262.1,194.4z"/>
	<path class="st1_quality-check-57" d="M242.5,238.1c-2.5,0-5-0.3-7.5-0.9c-25.4-5.9-34.6-27.7-34.7-27.9c0-0.1-0.1-0.2-0.1-0.2l-2.8-53.4&#10;&#9;&#9;c0-0.3,0.1-0.6,0.4-0.7c0.2-0.1,18.1-10.5,12.3-49.9c0-0.3,0.1-0.6,0.3-0.7c0.2-0.2,0.5-0.2,0.8-0.1c0.3,0.1,28.4,13.5,65.2,8.4&#10;&#9;&#9;c0.4-0.1,0.8,0.2,0.9,0.6c0.4,1.7,9,42.1,6.2,61.6c-2.5,17.4-16.8,19.9-20.5,20.3l3.4,22.1c0,0.1,0,0.2,0,0.3&#10;&#9;&#9;c-0.1,0.4-2.5,11.3-11.5,17.1C251.2,237,246.9,238.2,242.5,238.1z M201.8,208.8c0.7,1.7,9.9,21.4,33.5,26.9&#10;&#9;&#9;c7.3,1.7,13.6,0.9,18.7-2.3c8-5.1,10.5-14.8,10.8-16l-3.5-22.8c0-0.2,0-0.4,0.2-0.6c0.1-0.2,0.4-0.3,0.6-0.3&#10;&#9;&#9;c0.7,0,17.1-0.4,19.8-19c2.6-17.8-4.8-54.8-6-60.4c-32.5,4.2-58.1-5.6-64.1-8.1c4.9,36.6-10.1,48.1-12.9,49.9L201.8,208.8z"/>
	<path class="st0_quality-check-57" d="M249.1,137.8c0,0,12,22,8.4,25.3s-12.7,0.1-12.7,0.1"/>
	<path class="st1_quality-check-57" d="M252.5,165.4c-2.7-0.1-5.4-0.5-7.9-1.4c-0.4-0.1-0.7-0.5-0.6-0.9c0.1-0.4,0.5-0.7,0.9-0.6c0.1,0,0.1,0,0.2,0.1&#10;&#9;&#9;c0.1,0,8.6,3,11.9,0.1c2.2-2-3.7-15.5-8.5-24.4c-0.2-0.4-0.1-0.8,0.3-1c0.4-0.2,0.8-0.1,1,0.3c2,3.8,12.1,22.7,8.2,26.2&#10;&#9;&#9;C256.4,165,254.5,165.5,252.5,165.4z"/>
	
		<ellipse transform="matrix(0.9991 -4.205003e-02 4.205003e-02 0.9991 -5.3647 9.812)" class="st1_quality-check-57" cx="230.6" cy="132.4" rx="2.5" ry="5.7"/>
	
		<ellipse transform="matrix(0.9991 -4.205003e-02 4.205003e-02 0.9991 -5.396 11.3562)" class="st1_quality-check-57" cx="267.2" cy="133.9" rx="2.5" ry="5.7"/>
	<path class="st0_quality-check-57" d="M214.4,145.2c-2.2-3.8-5.2-7.2-8.7-9.9c-1.8-1.6-4.1-2.6-6.5-2.9c-2,0-3.9,0.6-5.6,1.6c-5,3-8.5,7.9-9.7,13.6&#10;&#9;&#9;c-0.6,2.6-0.5,5.3,0.3,7.9c1.2,4,4.3,7.2,7.9,9.5c3.6,2.1,7.5,3.8,11.5,5"/>
	<path class="st1_quality-check-57" d="M203.6,170.9c-0.1,0-0.2,0-0.2,0c-4.1-1.2-8-2.9-11.7-5.1c-3.8-2.2-6.7-5.7-8.2-9.9c-0.8-2.7-0.9-5.5-0.3-8.3&#10;&#9;&#9;c1.2-5.9,4.9-11.1,10.1-14.2c1.8-1.1,3.9-1.7,6-1.8c2.8,0.1,5.3,1.8,6.9,3c3.6,2.8,6.6,6.2,8.9,10.1c0.2,0.4,0.1,0.8-0.2,1.1&#10;&#9;&#9;c-0.4,0.2-0.8,0.1-1.1-0.2c0,0,0-0.1,0-0.1c-2.2-3.7-5.1-7-8.5-9.6c-1.4-1.1-3.6-2.6-6-2.7c-1.8,0-3.6,0.6-5.1,1.6&#10;&#9;&#9;c-4.8,2.8-8.3,7.6-9.4,13.1c-0.5,2.5-0.4,5.1,0.3,7.5c1.4,3.8,4.1,7,7.6,9c3.6,2.1,7.4,3.7,11.4,4.9c0.4,0.1,0.6,0.6,0.5,1&#10;&#9;&#9;c0,0,0,0,0,0C204.3,170.7,204,170.9,203.6,170.9z"/>
	<path class="st1_quality-check-57" d="M262.1,194.4c0,0-20,4.4-42.4-7c0,0,21.6,33.2,45.7,28.6L262.1,194.4z"/>
	<path class="st1_quality-check-57" d="M260.8,217.2c-8.8,0-18.3-4.5-27.8-13.2c-5.2-4.9-9.9-10.3-13.9-16.2c-0.2-0.3-0.2-0.7,0.1-0.9&#10;&#9;&#9;c0.2-0.3,0.6-0.3,0.9-0.2c21.9,11.1,41.7,7,41.9,6.9c0.2,0,0.4,0,0.6,0.1c0.2,0.1,0.3,0.3,0.3,0.5l3.3,21.6&#10;&#9;&#9;c0.1,0.4-0.2,0.8-0.6,0.9C264,217,262.4,217.2,260.8,217.2z M222,189.4c5.4,7.3,23.3,29.2,42.6,26l-3.1-20.1&#10;&#9;&#9;C248.1,197.1,234.3,195.1,222,189.4z"/>
	<path class="st0_quality-check-57" d="M262.9,170.1c0,0-25.8,20-36-18.8"/>
	<path class="st1_quality-check-57" d="M248.4,176c-1.9,0-3.8-0.3-5.6-0.9c-7.6-2.6-13.2-10.5-16.6-23.6c-0.1-0.4,0.1-0.8,0.5-0.9s0.8,0.1,0.9,0.5&#10;&#9;&#9;c3.3,12.6,8.6,20.2,15.6,22.6c9.4,3.2,19.1-4.1,19.2-4.2c0.3-0.2,0.8-0.2,1,0.1c0.2,0.3,0.2,0.8-0.1,1&#10;&#9;&#9;C263,170.9,256.4,176,248.4,176z"/>
	<path class="st0_quality-check-57" d="M374.9,185.2c0,0,17.9,6.6,19.9,26.4"/>
	<path class="st1_quality-check-57" d="M394.8,212.3c-0.4,0-0.7-0.3-0.7-0.7c-1.9-19-19.2-25.7-19.4-25.7c-0.4-0.1-0.6-0.6-0.5-1c0,0,0,0,0,0&#10;&#9;&#9;c0.1-0.4,0.6-0.6,1-0.4c0,0,0,0,0,0c0.2,0.1,18.4,7,20.4,27c0,0.4-0.3,0.8-0.7,0.8c0,0,0,0,0,0L394.8,212.3z"/>
	<path class="st2_quality-check-57 targetColor" d="M294.5,216.4c0,0,74.7,70.1,75.5,65.6c4.9-28.8,8.9-53.3,8.9-53.3l48.8,2c0,0,0,137.3-32.8,140.6&#10;&#9;&#9;c-24.9,2.5-111.5-78.6-111.5-78.6L294.5,216.4z" style="fill: rgb(247, 159, 72);"/>
	<path class="st1_quality-check-57" d="M307,405.5c-0.4,0-0.7-0.3-0.8-0.7l-13.9-163.3c0-0.4,0.3-0.8,0.7-0.8c0,0,0,0,0,0c0.4,0,0.8,0.3,0.8,0.7&#10;&#9;&#9;l13.9,163.3C307.8,405.1,307.5,405.5,307,405.5L307,405.5z"/>
	<path class="st1_quality-check-57" d="M193,402.1L193,402.1l-96.6-3.1c-0.4,0-0.8-0.4-0.7-0.8c0-0.4,0.4-0.7,0.8-0.8l95.8,3.1l2.7-51.3l-66.8-7.9&#10;&#9;&#9;c-0.2,0-0.4-0.1-0.5-0.3c-0.1-0.2-0.2-0.4-0.1-0.6c8.7-36.8,21.6-92.4,21.5-95c-0.1-0.4,0.2-0.8,0.6-0.9c0,0,0,0,0,0&#10;&#9;&#9;c0.4-0.1,0.8,0.2,0.9,0.6c0.6,2.3-17.2,77.5-21.3,94.8l66.7,7.9c0.4,0,0.7,0.4,0.7,0.8l-2.8,52.8&#10;&#9;&#9;C193.8,401.8,193.4,402.1,193,402.1C193,402.1,193,402.1,193,402.1z"/>
	<path class="st1_quality-check-57" d="M364.4,306.1h-0.2c-0.4-0.1-0.7-0.5-0.6-0.9l13.4-63.9c0.1-0.4,0.5-0.7,0.9-0.6c0,0,0,0,0,0&#10;&#9;&#9;c0.4,0.1,0.7,0.5,0.6,0.9l-13.4,63.9C365,305.8,364.7,306.1,364.4,306.1z"/>
	<path class="st1_quality-check-57" d="M201.9,267.8c-0.6,0-1.2-0.2-1.6-0.6c-7.1-5.5-19.3-53.6-18.6-59.1c0.8-6.1,10.8-14.4,11.2-14.8&#10;&#9;&#9;c0.3-0.3,0.8-0.2,1.1,0.1s0.2,0.8-0.1,1.1l0,0c-0.1,0.1-10,8.3-10.7,13.8c-0.7,5.3,11.4,52.7,18,57.7c0.3,0.3,0.6,0.4,0.8,0.3&#10;&#9;&#9;c6-2.4,22.2-25,22.4-25.2c0.3-0.3,0.8-0.4,1.1-0.1c0.3,0.2,0.4,0.7,0.2,1c-0.7,1-16.6,23.2-23,25.7&#10;&#9;&#9;C202.4,267.7,202.1,267.8,201.9,267.8z"/>
	<path class="st1_quality-check-57" d="M271.8,259.2h-0.3c-5-0.5-13.1-17.3-14-19.2c-0.2-0.4,0-0.8,0.4-1c0.4-0.2,0.8,0,1,0.4&#10;&#9;&#9;c3.3,6.9,9.7,18,12.8,18.3c0.3,0,0.7-0.1,0.9-0.4c3.8-4.9,8.9-32.1,5.3-45.5c-0.1-0.4,0.1-0.8,0.5-0.9c0.4-0.1,0.8,0.1,0.9,0.5&#10;&#9;&#9;c3.8,14.1-1.6,41.6-5.6,46.8C273.3,258.8,272.6,259.2,271.8,259.2z"/>
</g>
<g id="magnifying_glass_quality-check-57">
	<path class="st0_quality-check-57" d="M380.4,176.7l-0.3,0.5c-1.5,2.4-4.7,3.2-7.2,1.6c0,0,0,0,0,0l-34.9-22l0,0l5.9-9.3l0,0l34.9,22&#10;&#9;&#9;C381.2,171.1,381.9,174.3,380.4,176.7L380.4,176.7L380.4,176.7z"/>
	<path class="st1_quality-check-57" d="M375.6,180.4c-1.1,0-2.2-0.3-3.2-0.9l-34.9-22c-0.2-0.1-0.3-0.3-0.3-0.5c0-0.2,0-0.4,0.1-0.6l5.9-9.3&#10;&#9;&#9;c0.2-0.3,0.7-0.4,1-0.2l34.9,22c2.8,1.7,3.6,5.4,1.9,8.2c0,0,0,0,0,0l-0.3,0.6l0,0C379.5,179.3,377.7,180.4,375.6,180.4&#10;&#9;&#9;L375.6,180.4z M339,156.6l34.2,21.6c2.1,1.3,4.8,0.7,6.1-1.4c0,0,0,0,0,0l0.3-0.5c1.3-2.1,0.7-4.8-1.4-6.1l-34.2-21.6L339,156.6z&#10;&#9;&#9; M380,177.2L380,177.2z"/>
	
		<rect x="330.8" y="146.4" transform="matrix(0.5335 -0.8458 0.8458 0.5335 30.3953 357.9326)" class="st0_quality-check-57" width="17.8" height="10"/>
	<path class="st1_quality-check-57" d="M339.1,162.3c-0.1,0-0.3,0-0.4-0.1l-8.5-5.3c-0.3-0.2-0.4-0.7-0.2-1l9.5-15.1c0.2-0.3,0.7-0.4,1-0.2l8.5,5.3&#10;&#9;&#9;c0.2,0.1,0.3,0.3,0.3,0.5c0,0.2,0,0.4-0.1,0.6l-9.5,15.1c-0.1,0.2-0.3,0.3-0.5,0.3L339.1,162.3z M331.7,156l7.2,4.6l8.7-13.8&#10;&#9;&#9;l-7.2-4.5L331.7,156z"/>
	<path class="st0_quality-check-57" d="M428.2,204.2l-2.8,4.4c-1.9,2.9-5.7,3.8-8.7,2l-48.6-30.7c-2.9-1.9-3.8-5.7-2-8.7l2.8-4.4&#10;&#9;&#9;c1.9-2.9,5.7-3.8,8.7-2l48.6,30.7C429.2,197.3,430,201.2,428.2,204.2z"/>
	<path class="st1_quality-check-57" d="M420.1,212.2c-1.3,0-2.6-0.4-3.7-1.1l-48.6-30.7c-3.3-2-4.3-6.4-2.2-9.6c0,0,0,0,0-0.1l2.8-4.4&#10;&#9;&#9;c2.1-3.3,6.4-4.3,9.7-2.2l48.6,30.7c3.3,2,4.3,6.4,2.2,9.6c0,0,0,0,0,0.1L426,209c-1,1.6-2.6,2.7-4.4,3.1&#10;&#9;&#9;C421.1,212.2,420.6,212.3,420.1,212.2z M374.2,164.6c-1.9,0-3.7,1-4.7,2.6l-2.8,4.4c-1.6,2.6-0.9,6,1.7,7.6c0,0,0,0,0,0l48.6,30.7&#10;&#9;&#9;c2.6,1.6,6,0.9,7.6-1.7c0,0,0,0,0,0l0,0l2.8-4.4c1.6-2.6,0.9-6-1.7-7.6c0,0,0,0,0,0l-48.6-30.7&#10;&#9;&#9;C376.3,164.9,375.3,164.6,374.2,164.6L374.2,164.6z"/>
	<path class="st0_quality-check-57" d="M261.1,101.8c-13.9,22.1-7.3,51.3,14.8,65.2c22.1,13.9,51.3,7.3,65.2-14.8c13.9-22.1,7.3-51.3-14.8-65.2&#10;&#9;&#9;C304.2,73.1,275,79.7,261.1,101.8z"/>
	<path class="st1_quality-check-57" d="M301,175.1c-26.5,0-48-21.5-48-48c0-9.1,2.6-18,7.4-25.6l0,0c14.2-22.4,43.8-29.1,66.2-14.9&#10;&#9;&#9;c22.4,14.2,29.1,43.8,14.9,66.2C332.8,166.7,317.5,175.1,301,175.1z M261.7,102.2c-13.7,21.7-7.2,50.5,14.5,64.2&#10;&#9;&#9;c21.7,13.7,50.5,7.2,64.2-14.5c13.7-21.7,7.2-50.5-14.5-64.2c-10.4-6.6-23.1-8.8-35.1-6C278.8,84.4,268.3,91.8,261.7,102.2z"/>
	<path class="st0_quality-check-57" d="M321,95.4c17.5,11,22.7,34.1,11.7,51.6c-11,17.5-34.1,22.7-51.6,11.7c-17.5-11-22.7-34.1-11.7-51.6&#10;&#9;&#9;c0,0,0,0,0,0C280.4,89.6,303.5,84.4,321,95.4C321,95.4,321,95.4,321,95.4z"/>
	<path class="st3_quality-check-57" d="M301,165.2c-21.1-0.1-38.1-17.2-38.1-38.2c0.1-21.1,17.2-38.1,38.2-38.1c7.2,0,14.2,2.1,20.3,5.9l0,0&#10;&#9;&#9;c17.8,11.2,23.2,34.8,11.9,52.6C326.4,158.5,314.1,165.3,301,165.2z M301.1,90.4c-20.3-0.1-36.7,16.3-36.8,36.6&#10;&#9;&#9;s16.3,36.7,36.6,36.8c20.3,0.1,36.7-16.3,36.8-36.6c0-12.6-6.4-24.4-17.1-31.1l0,0C314.8,92.4,308,90.4,301.1,90.4L301.1,90.4z"/>
</g>
<g id="check_icon_quality-check-57">
	<path class="st1_quality-check-57" d="M279.1,127.5c0.3-0.4,0.6-0.8,1-1.1c1.2-1.1,2.4-2.2,3.6-3.3c0.5-0.7,1.5-0.8,2.1-0.3c0.1,0.1,0.2,0.2,0.3,0.3&#10;&#9;&#9;l9.2,9.4c0.9,0.9,1.7,1,2.6,0l21.6-21.5c1-1,1.7-1,2.6,0c1.3,1.3,2.5,2.5,3.8,3.8c0.7,0.5,0.8,1.5,0.3,2.1&#10;&#9;&#9;c-0.1,0.1-0.2,0.2-0.3,0.3l-28.1,28.1c-0.5,0.6-1.4,0.8-2.1,0.3c-0.1-0.1-0.2-0.2-0.3-0.3c-5.3-5.4-10.6-10.9-15.8-16.4&#10;&#9;&#9;c-0.2-0.3-0.4-0.5-0.5-0.8L279.1,127.5z"/>
	<path class="st1_quality-check-57" d="M296.7,146.7L296.7,146.7c-0.7,0-1.3-0.3-1.7-0.8c-5.3-5.4-10.6-10.9-15.8-16.4c-0.2-0.2-0.4-0.5-0.5-0.7&#10;&#9;&#9;l-0.1-0.2c-0.1-0.1-0.1-0.3-0.1-0.4v-0.7c0-0.2,0.1-0.3,0.2-0.5l0.3-0.3c0.2-0.3,0.5-0.6,0.7-0.8c0.9-0.8,1.7-1.6,2.6-2.3l1-0.9&#10;&#9;&#9;c0.8-0.9,2.2-1,3.2-0.2c0.1,0.1,0.2,0.2,0.3,0.3l9.2,9.4c0.2,0.2,0.5,0.4,0.8,0.5l0,0c0.3-0.1,0.6-0.2,0.8-0.5l21.6-21.5&#10;&#9;&#9;c0.5-0.5,1.1-0.9,1.8-0.9c0.7,0.1,1.4,0.4,1.8,0.9l3.8,3.8c1,0.8,1.1,2.2,0.3,3.2c-0.1,0.1-0.2,0.2-0.3,0.3l-28.1,28.1&#10;&#9;&#9;C297.9,146.4,297.3,146.7,296.7,146.7z M279.9,128l0.1,0.1c0.1,0.1,0.2,0.3,0.3,0.4c5.3,5.5,10.5,10.9,15.8,16.4&#10;&#9;&#9;c0.2,0.2,0.4,0.3,0.6,0.4l0,0c0.2,0,0.5-0.2,0.6-0.4l28.1-28.1c0.5-0.5,0.5-0.8,0-1.4l-3.8-3.8c-0.2-0.2-0.5-0.4-0.8-0.5&#10;&#9;&#9;c-0.3,0.1-0.6,0.2-0.8,0.5l-21.6,21.5c-0.5,0.5-1.1,0.9-1.8,0.9l0,0c-0.7-0.1-1.4-0.4-1.8-0.9l-9.2-9.4c-0.6-0.6-0.8-0.6-1.4,0&#10;&#9;&#9;l-1,0.9c-0.9,0.8-1.7,1.5-2.6,2.3c-0.2,0.2-0.4,0.4-0.6,0.7l-0.1,0.2L279.9,128z"/>
</g>
<g id="document_quality-check-57">
	<polygon class="st1_quality-check-57" points="258.3,295.6 349.4,312.3 323.4,434.6 228.6,423.6 &#9;"/>
	<path class="st1_quality-check-57" d="M323.4,435.4L323.4,435.4l-94.9-11c-0.4,0-0.7-0.4-0.7-0.8c0,0,0-0.1,0-0.1l29.7-128c0.1-0.4,0.5-0.6,0.9-0.6&#10;&#9;&#9;l91.1,16.7c0.2,0,0.4,0.1,0.5,0.3c0.1,0.2,0.1,0.4,0.1,0.6l-26,122.3C324,435.1,323.8,435.3,323.4,435.4z M229.5,423l93.3,10.8&#10;&#9;&#9;L348.5,313l-89.6-16.4L229.5,423z"/>
	<polygon class="st1_quality-check-57" points="283.3,303.6 287.5,293.8 327,300.8 327,311.1 &#9;"/>
	<path class="st1_quality-check-57" d="M327,311.9h-0.1l-43.7-7.5c-0.4-0.1-0.7-0.5-0.6-0.9c0,0,0-0.1,0-0.1l4.2-9.8c0.1-0.3,0.5-0.5,0.8-0.4l39.5,7&#10;&#9;&#9;c0.4,0.1,0.6,0.4,0.6,0.7v10.3c0,0.2-0.1,0.4-0.3,0.6C327.3,311.9,327.2,311.9,327,311.9z M284.3,303.1l41.9,7.2v-8.8l-38.2-6.8&#10;&#9;&#9;L284.3,303.1z"/>
</g>
<g id="Fingers_and_hand_quality-check-57">
	<path class="st0_quality-check-57" d="M394.7,190.7c1.6-0.8,2-2.8,2.1-4.6c0.1-3.4-0.5-6.7-1.7-9.9l5.9,12.9c1.1,2.5,2.3,5.1,4.3,7s5.1,2.9,7.6,1.8&#10;&#9;&#9;c3.7-1.6,4.3-6.6,3.8-10.5c-0.5-3.7-1.4-7.3-2.9-10.8c-1.3-3-3.1-6-5.9-7.7s-6.8-1.9-9.1,0.4c-2.5-3.9-7.9-11-13.5-9.6&#10;&#9;&#9;c-3.7,0.9-3.3,3-2.5,6.4C383.7,170.8,388.1,193.8,394.7,190.7z"/>
	<path class="st1_quality-check-57" d="M410.7,199.1c-2.2-0.1-4.3-1-5.9-2.5c-2.1-2-3.4-4.8-4.5-7.2l-2.9-6.2c0.1,1,0.1,1.9,0.1,2.9&#10;&#9;&#9;c-0.1,2.7-1,4.5-2.5,5.2c-1,0.5-2.1,0.5-3.1,0c-4.5-2.2-7.5-13.9-9.6-23.8l-0.3-1.2c-0.7-3.2-1.4-6.2,3.1-7.3&#10;&#9;&#9;c4.3-1.1,9.1,2.1,13.9,9.2c2.8-2,6.8-1.5,9.3,0.1s4.5,4.2,6.2,8c1.5,3.5,2.5,7.2,3,11c0.3,2.1,0.8,9.1-4.2,11.3&#10;&#9;&#9;C412.4,199,411.6,199.2,410.7,199.1z M395.1,175.5c0.3,0,0.6,0.2,0.7,0.4l5.9,12.9c1,2.3,2.2,4.9,4.2,6.7c1.7,1.6,4.4,2.7,6.8,1.7&#10;&#9;&#9;c4-1.8,3.5-7.9,3.3-9.8c-0.5-3.6-1.4-7.2-2.9-10.6c-1.5-3.6-3.4-6-5.6-7.3s-6-1.8-8.2,0.3c-0.2,0.2-0.4,0.2-0.6,0.2&#10;&#9;&#9;c-0.2,0-0.4-0.1-0.5-0.3c-3.2-4.9-8-10.4-12.7-9.3c-2.9,0.7-2.8,2-2,5.5l0.3,1.2c1.1,5.1,4.4,20.6,8.8,22.8c0.6,0.3,1.2,0.3,1.8,0&#10;&#9;&#9;l0,0c1.3-0.6,1.6-2.5,1.7-3.9c0.1-3.3-0.5-6.5-1.6-9.6c-0.2-0.4,0-0.8,0.4-1c0,0,0,0,0,0C394.9,175.5,395,175.5,395.1,175.5z"/>
	<path class="st0_quality-check-57" d="M269.6,352.4c-0.7-8-26.6,2.9-26.6,2.9s7.3-16.6,3.4-19.7s-17.1,17-17.1,17s-18.4,2.9-33.5,2.7l-2.3,37.1&#10;&#9;&#9;c37.2-2.7,61.3-3.7,62.4-6.1C258.1,381.5,270.3,360.3,269.6,352.4z"/>
	<path class="st1_quality-check-57" d="M193.4,393.1c-0.4,0-0.7-0.3-0.7-0.7c0,0,0,0,0,0l2.3-37.2c0-0.4,0.3-0.6,0.7-0.6l0,0&#10;&#9;&#9;c13.8,0.2,30.6-2.2,33.1-2.6c1.7-2.6,11.2-16.5,16.1-17.3c0.7-0.1,1.3,0,1.9,0.4c3.6,2.8-0.7,14.6-2.6,19&#10;&#9;&#9;c4.8-1.9,19.5-7.3,24.4-4.4c1,0.6,1.6,1.6,1.7,2.7l0,0c0.6,6.8-7.5,22.1-11.8,30.4c-0.9,1.7-1.6,3-2,3.9c-1,2.2-11.6,3-42.2,5.1&#10;&#9;&#9;C207.9,392.1,201,392.5,193.4,393.1L193.4,393.1z M196.4,355.9l-2.2,35.7c7.2-0.5,13.9-1,20.1-1.4c22.2-1.5,39.8-2.7,41-4.3&#10;&#9;&#9;c0.4-0.8,1.1-2.2,2-3.9c4-7.5,12.2-23.2,11.6-29.6l0,0c0-0.7-0.4-1.3-1-1.6c-4.2-2.5-19.2,2.8-24.6,5.1c-0.3,0.1-0.6,0-0.8-0.2&#10;&#9;&#9;c-0.2-0.2-0.2-0.5-0.1-0.8c2.8-6.2,6.1-16.9,3.6-18.9c-0.2-0.2-0.5-0.2-0.8-0.1c-3.8,0.6-12.4,12.5-15.3,17&#10;&#9;&#9;c-0.1,0.2-0.3,0.3-0.5,0.3C229.2,353.2,211.2,356.1,196.4,355.9L196.4,355.9z"/>
</g>
</svg>